<svg width="113" height="113" viewBox="0 0 113 113" fill="none" xmlns="http://www.w3.org/2000/svg">
<rect width="113" height="113" rx="10" fill="#F1F8FF"/>
<path d="M15 35.5425C15 31.878 15 30.0479 15.2905 28.5207C15.9098 25.2415 17.503 22.2251 19.8624 19.8651C22.2217 17.505 25.2376 15.9108 28.5166 15.2905C30.0479 15 31.8822 15 35.5425 15C37.1444 15 37.9495 15 38.7214 15.0705C42.0457 15.3828 45.1987 16.6902 47.7684 18.8221C48.366 19.316 48.9304 19.8804 50.0675 21.0175L52.35 23.3C55.7364 26.6864 57.4296 28.3796 59.4548 29.5042C60.5679 30.1246 61.7488 30.6148 62.974 30.9651C65.2067 31.6 67.6012 31.6 72.3862 31.6H73.9383C84.8611 31.6 90.3267 31.6 93.8749 34.7955C94.2041 35.086 94.514 35.3959 94.8045 35.7251C98 39.2733 98 44.7389 98 55.6617V64.8C98 80.4497 98 88.2766 93.1362 93.1362C88.2724 97.9958 80.4497 98 64.8 98H48.2C32.5504 98 24.7234 98 19.8638 93.1362C15.0041 88.2724 15 80.4497 15 64.8V35.5425Z" fill="#CCEDFF"/>
<path d="M90 33C90 31.7115 89.979 30.9463 89.8951 30.2761C89.5328 27.4456 88.2746 24.8174 86.3155 22.799C84.3564 20.7806 81.8059 19.4847 79.0595 19.1124C78.2415 19 77.2683 19 75.3176 19H48C48.4866 19.4497 49.0362 20.0117 49.9381 20.9456L52.2453 23.3237C55.6684 26.8518 57.3799 28.6158 59.4271 29.7875C60.5536 30.4342 61.7486 30.9449 62.9886 31.3095C65.2413 31.971 67.6618 31.971 72.5028 31.971H74.0675C81.5346 31.971 86.472 31.971 90 33Z" fill="#4076AA"/>
<path fill-rule="evenodd" clip-rule="evenodd" d="M58 48C58 47.2044 58.3282 46.4413 58.9125 45.8787C59.4967 45.3161 60.2891 45 61.1154 45H81.8846C82.7109 45 83.5033 45.3161 84.0875 45.8787C84.6718 46.4413 85 47.2044 85 48C85 48.7956 84.6718 49.5587 84.0875 50.1213C83.5033 50.6839 82.7109 51 81.8846 51H61.1154C60.2891 51 59.4967 50.6839 58.9125 50.1213C58.3282 49.5587 58 48.7956 58 48Z" fill="#4076AA"/>
</svg>
