<svg width="38" height="41" viewBox="0 0 38 41" fill="none" xmlns="http://www.w3.org/2000/svg">
<path fill-rule="evenodd" clip-rule="evenodd" d="M0.899903 4.23366C0.63819 3.92809 0.469568 3.55389 0.414022 3.15541C0.358476 2.75694 0.418334 2.35089 0.586502 1.9854C0.75467 1.6199 1.0241 1.31028 1.36285 1.09322C1.70161 0.87617 2.09549 0.760784 2.49782 0.760742H28.4937C29.7248 0.760742 30.9439 1.00323 32.0813 1.47437C33.2187 1.94551 34.2522 2.63607 35.1228 3.50662C35.9933 4.37717 36.6839 5.41066 37.155 6.54808C37.6262 7.68551 37.8687 8.9046 37.8687 10.1357C37.8687 11.3669 37.6262 12.586 37.155 13.7234C36.6839 14.8608 35.9933 15.8943 35.1228 16.7649C34.2522 17.6354 33.2187 18.326 32.0813 18.7971C30.9439 19.2683 29.7248 19.5107 28.4937 19.5107H2.49782C2.09549 19.5107 1.70161 19.3953 1.36285 19.1783C1.0241 18.9612 0.75467 18.6516 0.586502 18.2861C0.418334 17.9206 0.358476 17.5145 0.414022 17.1161C0.469568 16.7176 0.63819 16.3434 0.899903 16.0378L2.47074 14.2045C3.44182 13.0717 3.97561 11.6288 3.97561 10.1368C3.97561 8.64472 3.44182 7.20188 2.47074 6.06908L0.899903 4.23366ZM0.368652 30.9691C0.368652 28.4827 1.35637 26.0981 3.11453 24.3399C4.87268 22.5818 7.25725 21.5941 9.74365 21.5941H35.7395C36.1418 21.5941 36.5357 21.7095 36.8745 21.9266C37.2132 22.1436 37.4826 22.4532 37.6508 22.8187C37.819 23.1842 37.8788 23.5903 37.8233 23.9887C37.7677 24.3872 37.5991 24.7614 37.3374 25.067L35.7645 26.9003C34.7934 28.0331 34.2596 29.476 34.2596 30.968C34.2596 32.4601 34.7934 33.9029 35.7645 35.0357L37.3374 36.8691C37.5998 37.1746 37.7689 37.549 37.8248 37.9478C37.8807 38.3466 37.821 38.7531 37.6528 39.119C37.4845 39.4849 37.2148 39.7948 36.8757 40.0119C36.5365 40.2291 36.1422 40.3444 35.7395 40.3441H9.74365C7.25725 40.3441 4.87268 39.3564 3.11453 37.5982C1.35637 35.84 0.368652 33.4555 0.368652 30.9691Z" fill="#FF6E6E"/>
</svg>
