<svg width="63" height="51" viewBox="0 0 63 51" fill="none" xmlns="http://www.w3.org/2000/svg">
<path d="M14.4888 0.593994C16.5608 0.593994 18.5479 1.41709 20.013 2.88222C21.4782 4.34735 22.3013 6.33449 22.3013 8.40649C22.3013 10.4785 21.4782 12.4656 20.013 13.9308C18.5479 15.3959 16.5608 16.219 14.4888 16.219C12.4168 16.219 10.4296 15.3959 8.9645 13.9308C7.49937 12.4656 6.67627 10.4785 6.67627 8.40649C6.67627 6.33449 7.49937 4.34735 8.9645 2.88222C10.4296 1.41709 12.4168 0.593994 14.4888 0.593994ZM50.4263 0.593994C52.4983 0.593994 54.4854 1.41709 55.9505 2.88222C57.4157 4.34735 58.2388 6.33449 58.2388 8.40649C58.2388 10.4785 57.4157 12.4656 55.9505 13.9308C54.4854 15.3959 52.4983 16.219 50.4263 16.219C48.3543 16.219 46.3671 15.3959 44.902 13.9308C43.4369 12.4656 42.6138 10.4785 42.6138 8.40649C42.6138 6.33449 43.4369 4.34735 44.902 2.88222C46.3671 1.41709 48.3543 0.593994 50.4263 0.593994ZM0.42627 29.7639C0.42627 24.012 5.09424 19.344 10.8462 19.344H15.0161C16.5688 19.344 18.0435 19.6858 19.3716 20.2913C19.2446 20.9944 19.186 21.7268 19.186 22.469C19.186 26.1995 20.8267 29.5491 23.4146 31.844H2.50635C1.36377 31.844 0.42627 30.9065 0.42627 29.7639ZM40.0063 31.844H39.938C42.5356 29.5491 44.1665 26.1995 44.1665 22.469C44.1665 21.7268 44.0981 21.0042 43.981 20.2913C45.3091 19.676 46.7837 19.344 48.3364 19.344H52.5063C58.2583 19.344 62.9263 24.012 62.9263 29.7639C62.9263 30.9163 61.9888 31.844 60.8462 31.844H40.0161H40.0063ZM22.3013 22.469C22.3013 19.9826 23.289 17.598 25.0471 15.8399C26.8053 14.0817 29.1899 13.094 31.6763 13.094C34.1627 13.094 36.5472 14.0817 38.3054 15.8399C40.0635 17.598 41.0513 19.9826 41.0513 22.469C41.0513 24.9554 40.0635 27.34 38.3054 29.0981C36.5472 30.8563 34.1627 31.844 31.6763 31.844C29.1899 31.844 26.8053 30.8563 25.0471 29.0981C23.289 27.34 22.3013 24.9554 22.3013 22.469ZM12.9263 47.9866C12.9263 40.7991 18.7563 34.969 25.9438 34.969H37.3989C44.5962 34.969 50.4263 40.7991 50.4263 47.9866C50.4263 49.4221 49.2642 50.594 47.8188 50.594H15.5239C14.0884 50.594 12.9165 49.4319 12.9165 47.9866H12.9263Z" fill="#00CE15"/>
</svg>
