<svg width="30" height="26" viewBox="0 0 30 26" fill="none" xmlns="http://www.w3.org/2000/svg">
<path d="M1.875 4.30243C3.53437 3.60868 5.91375 2.86055 8.2275 2.62805C10.7213 2.3768 12.8363 2.74618 14.0625 4.03805V22.3118C12.3094 21.3181 10.0875 21.1812 8.03813 21.3874C5.82563 21.6124 3.59437 22.2518 1.875 22.9081V4.30243ZM15.9375 4.03805C17.1637 2.74618 19.2788 2.3768 21.7725 2.62805C24.0863 2.86055 26.4656 3.60868 28.125 4.30243V22.9081C26.4037 22.2518 24.1744 21.6106 21.9619 21.3893C19.9106 21.1812 17.6906 21.3162 15.9375 22.3118V4.03805ZM15 2.34305C13.1531 0.754929 10.4756 0.518679 8.03813 0.762429C5.19938 1.0493 2.33438 2.02243 0.549375 2.8343C0.385592 2.90879 0.246704 3.02884 0.149289 3.18012C0.051875 3.33139 4.98214e-05 3.5075 0 3.68743L0 24.3124C4.34287e-05 24.4693 0.0394446 24.6236 0.114595 24.7613C0.189744 24.899 0.298241 25.0156 0.430145 25.1005C0.56205 25.1854 0.713146 25.2358 0.869594 25.2472C1.02604 25.2586 1.18284 25.2305 1.32563 25.1656C2.97938 24.4156 5.64375 23.5137 8.22563 23.2531C10.8675 22.9868 13.0819 23.4162 14.2688 24.8974C14.3566 25.0069 14.4679 25.0953 14.5945 25.156C14.721 25.2167 14.8596 25.2483 15 25.2483C15.1404 25.2483 15.279 25.2167 15.4055 25.156C15.5321 25.0953 15.6434 25.0069 15.7313 24.8974C16.9181 23.4162 19.1325 22.9868 21.7725 23.2531C24.3563 23.5137 27.0225 24.4156 28.6744 25.1656C28.8172 25.2305 28.974 25.2586 29.1304 25.2472C29.2869 25.2358 29.438 25.1854 29.5699 25.1005C29.7018 25.0156 29.8103 24.899 29.8854 24.7613C29.9606 24.6236 30 24.4693 30 24.3124V3.68743C30 3.5075 29.9481 3.33139 29.8507 3.18012C29.7533 3.02884 29.6144 2.90879 29.4506 2.8343C27.6656 2.02243 24.8006 1.0493 21.9619 0.762429C19.5244 0.516804 16.8469 0.754929 15 2.34305Z" fill="#5A5F7D"/>
</svg>
