<svg width="25" height="21" viewBox="0 0 25 21" fill="none" xmlns="http://www.w3.org/2000/svg">
<path fill-rule="evenodd" clip-rule="evenodd" d="M5.5 7.5C6.29565 7.5 7.05871 7.18393 7.62132 6.62132C8.18393 6.05871 8.5 5.29565 8.5 4.5C8.5 3.70435 8.18393 2.94129 7.62132 2.37868C7.05871 1.81607 6.29565 1.5 5.5 1.5C4.70435 1.5 3.94129 1.81607 3.37868 2.37868C2.81607 2.94129 2.5 3.70435 2.5 4.5C2.5 5.29565 2.81607 6.05871 3.37868 6.62132C3.94129 7.18393 4.70435 7.5 5.5 7.5ZM5.5 9C6.09095 9 6.67611 8.8836 7.22208 8.65746C7.76804 8.43131 8.26412 8.09984 8.68198 7.68198C9.09984 7.26412 9.43131 6.76804 9.65746 6.22208C9.8836 5.67611 10 5.09095 10 4.5C10 3.90905 9.8836 3.32389 9.65746 2.77792C9.43131 2.23196 9.09984 1.73588 8.68198 1.31802C8.26412 0.900156 7.76804 0.568689 7.22208 0.342542C6.67611 0.116396 6.09095 -8.80582e-09 5.5 0C4.30653 1.77842e-08 3.16193 0.474106 2.31802 1.31802C1.47411 2.16193 1 3.30653 1 4.5C1 5.69347 1.47411 6.83807 2.31802 7.68198C3.16193 8.5259 4.30653 9 5.5 9Z" fill="#5A5F7D"/>
<path fill-rule="evenodd" clip-rule="evenodd" d="M3.781 7.34392C3.85085 7.41359 3.90626 7.49636 3.94407 7.58747C3.98188 7.67859 4.00134 7.77627 4.00134 7.87492C4.00134 7.97358 3.98188 8.07126 3.94407 8.16237C3.90626 8.25349 3.85085 8.33626 3.781 8.40592L3.274 8.91142C2.2983 9.88739 1.75013 11.2109 1.75 12.5909V15.3749C1.75 15.5738 1.67098 15.7646 1.53033 15.9053C1.38968 16.0459 1.19891 16.1249 1 16.1249C0.801088 16.1249 0.610322 16.0459 0.46967 15.9053C0.329018 15.7646 0.25 15.5738 0.25 15.3749V12.5909C0.250213 10.8131 0.956479 9.10813 2.2135 7.85092L2.719 7.34392C2.78867 7.27408 2.87143 7.21867 2.96255 7.18086C3.05367 7.14305 3.15135 7.12358 3.25 7.12358C3.34865 7.12358 3.44633 7.14305 3.53745 7.18086C3.62857 7.21867 3.71133 7.27408 3.781 7.34392ZM21.469 6.89392C21.3992 6.96359 21.3437 7.04636 21.3059 7.13747C21.2681 7.22859 21.2487 7.32627 21.2487 7.42492C21.2487 7.52358 21.2681 7.62126 21.3059 7.71238C21.3437 7.80349 21.3992 7.88626 21.469 7.95592L21.976 8.46142C22.9517 9.43739 23.4999 10.7609 23.5 12.1409V15.3749C23.5 15.5738 23.579 15.7646 23.7197 15.9053C23.8603 16.0459 24.0511 16.1249 24.25 16.1249C24.4489 16.1249 24.6397 16.0459 24.7803 15.9053C24.921 15.7646 25 15.5738 25 15.3749V12.1409C24.9998 10.3631 24.2935 8.65813 23.0365 7.40092L22.531 6.89392C22.4613 6.82408 22.3786 6.76867 22.2874 6.73086C22.1963 6.69305 22.0987 6.67358 22 6.67358C21.9013 6.67358 21.8037 6.69305 21.7126 6.73086C21.6214 6.76867 21.5387 6.82408 21.469 6.89392Z" fill="#5A5F7D"/>
<path fill-rule="evenodd" clip-rule="evenodd" d="M19 7.5C18.2044 7.5 17.4413 7.18393 16.8787 6.62132C16.3161 6.05871 16 5.29565 16 4.5C16 3.70435 16.3161 2.94129 16.8787 2.37868C17.4413 1.81607 18.2044 1.5 19 1.5C19.7956 1.5 20.5587 1.81607 21.1213 2.37868C21.6839 2.94129 22 3.70435 22 4.5C22 5.29565 21.6839 6.05871 21.1213 6.62132C20.5587 7.18393 19.7956 7.5 19 7.5ZM19 9C18.4091 9 17.8239 8.8836 17.2779 8.65746C16.732 8.43131 16.2359 8.09984 15.818 7.68198C15.4002 7.26412 15.0687 6.76804 14.8425 6.22208C14.6164 5.67611 14.5 5.09095 14.5 4.5C14.5 3.90905 14.6164 3.32389 14.8425 2.77792C15.0687 2.23196 15.4002 1.73588 15.818 1.31802C16.2359 0.900156 16.732 0.568689 17.2779 0.342542C17.8239 0.116396 18.4091 -8.80582e-09 19 0C20.1935 1.77842e-08 21.3381 0.474106 22.182 1.31802C23.0259 2.16193 23.5 3.30653 23.5 4.5C23.5 5.69347 23.0259 6.83807 22.182 7.68198C21.3381 8.5259 20.1935 9 19 9ZM12.25 13.875C11.2554 13.875 10.3016 14.2701 9.59835 14.9733C8.89509 15.6766 8.5 16.6304 8.5 17.625V19.575C8.5 19.7739 8.42098 19.9647 8.28033 20.1053C8.13968 20.246 7.94891 20.325 7.75 20.325C7.55109 20.325 7.36032 20.246 7.21967 20.1053C7.07902 19.9647 7 19.7739 7 19.575V17.625C7 16.2326 7.55312 14.8973 8.53769 13.9127C9.52226 12.9281 10.8576 12.375 12.25 12.375C13.6424 12.375 14.9777 12.9281 15.9623 13.9127C16.9469 14.8973 17.5 16.2326 17.5 17.625V19.575C17.5 19.7739 17.421 19.9647 17.2803 20.1053C17.1397 20.246 16.9489 20.325 16.75 20.325C16.5511 20.325 16.3603 20.246 16.2197 20.1053C16.079 19.9647 16 19.7739 16 19.575V17.625C16 17.1325 15.903 16.6449 15.7145 16.1899C15.5261 15.735 15.2499 15.3216 14.9017 14.9733C14.5534 14.6251 14.14 14.3489 13.6851 14.1605C13.2301 13.972 12.7425 13.875 12.25 13.875Z" fill="#5A5F7D"/>
<path fill-rule="evenodd" clip-rule="evenodd" d="M12.25 11.625C13.0456 11.625 13.8087 11.3089 14.3713 10.7463C14.9339 10.1837 15.25 9.42065 15.25 8.625C15.25 7.82935 14.9339 7.06629 14.3713 6.50368C13.8087 5.94107 13.0456 5.625 12.25 5.625C11.4544 5.625 10.6913 5.94107 10.1287 6.50368C9.56607 7.06629 9.25 7.82935 9.25 8.625C9.25 9.42065 9.56607 10.1837 10.1287 10.7463C10.6913 11.3089 11.4544 11.625 12.25 11.625ZM12.25 13.125C13.4435 13.125 14.5881 12.6509 15.432 11.807C16.2759 10.9631 16.75 9.81847 16.75 8.625C16.75 7.43153 16.2759 6.28693 15.432 5.44302C14.5881 4.59911 13.4435 4.125 12.25 4.125C11.0565 4.125 9.91193 4.59911 9.06802 5.44302C8.22411 6.28693 7.75 7.43153 7.75 8.625C7.75 9.81847 8.22411 10.9631 9.06802 11.807C9.91193 12.6509 11.0565 13.125 12.25 13.125Z" fill="#5A5F7D"/>
</svg>
