<svg width="70" height="70" viewBox="0 0 70 70" fill="none" xmlns="http://www.w3.org/2000/svg">
<path fill-rule="evenodd" clip-rule="evenodd" d="M34.9998 7.29163C31.905 7.2909 28.876 8.18543 26.2781 9.86735C23.6802 11.5493 21.6242 13.9468 20.3582 16.7708C20.1812 17.1712 20.0004 17.5698 19.8157 17.9666L19.6173 18.3516C19.521 18.5101 19.3952 18.6486 19.2469 18.76C19.0843 18.8492 18.9061 18.9066 18.7219 18.9291C18.6169 18.9495 18.4011 18.9583 17.4998 18.9583C14.7924 18.9583 12.1959 20.0338 10.2815 21.9482C8.36702 23.8627 7.2915 26.4592 7.2915 29.1666C7.2915 31.874 8.36702 34.4706 10.2815 36.385C12.1959 38.2994 14.7924 39.375 17.4998 39.375H19.4598L22.3765 36.4583H17.4998C15.566 36.4583 13.7113 35.6901 12.3439 34.3226C10.9764 32.9552 10.2082 31.1005 10.2082 29.1666C10.2082 27.2328 10.9764 25.3781 12.3439 24.0106C13.7113 22.6432 15.566 21.875 17.4998 21.875H17.6573C18.3165 21.875 18.8619 21.875 19.2965 21.7875C19.8215 21.6825 20.3407 21.525 20.8307 21.2041C21.3207 20.8891 21.6765 20.4808 21.9915 20.0433C22.1607 19.81 22.3123 19.5066 22.4494 19.2179C22.5933 18.9087 22.781 18.4965 23.0123 17.9812L23.0182 17.9666C24.0534 15.6546 25.7355 13.6914 27.8615 12.314C29.9875 10.9365 32.4666 10.2036 34.9998 10.2036C37.5331 10.2036 40.0122 10.9365 42.1382 12.314C44.2642 13.6914 45.9463 15.6546 46.9815 17.9666L46.9873 17.9841C47.2187 18.4975 47.4064 18.9087 47.5503 19.2179C47.6873 19.5066 47.839 19.807 48.0082 20.0433C48.3203 20.4808 48.679 20.8891 49.169 21.207C49.659 21.525 50.1782 21.6825 50.7032 21.7904C51.1378 21.8779 51.6832 21.8779 52.3423 21.875H52.4998C54.4337 21.875 56.2884 22.6432 57.6558 24.0106C59.0233 25.3781 59.7915 27.2328 59.7915 29.1666C59.7915 31.1005 59.0233 32.9552 57.6558 34.3226C56.2884 35.6901 54.4337 36.4583 52.4998 36.4583H47.6232L50.5398 39.375H52.4998C53.8404 39.375 55.1679 39.1109 56.4064 38.5979C57.6449 38.0849 58.7703 37.3329 59.7182 36.385C60.6662 35.4371 61.4181 34.3117 61.9311 33.0732C62.4441 31.8347 62.7082 30.5072 62.7082 29.1666C62.7082 27.8261 62.4441 26.4986 61.9311 25.2601C61.4181 24.0215 60.6662 22.8962 59.7182 21.9482C58.7703 21.0003 57.6449 20.2484 56.4064 19.7354C55.1679 19.2223 53.8404 18.9583 52.4998 18.9583C51.5986 18.9583 51.3828 18.9495 51.2807 18.9291C51.0963 18.9057 50.9181 18.8473 50.7557 18.757C50.6063 18.646 50.4796 18.5074 50.3823 18.3487L50.3357 18.27L50.184 17.9637C49.9993 17.5678 49.8185 17.1702 49.6415 16.7708C48.3754 13.9468 46.3195 11.5493 43.7216 9.86735C41.1237 8.18543 38.0947 7.2909 34.9998 7.29163Z" fill="#4076AA"/>
<path d="M34.9999 34.9999L33.9674 33.9674L34.9999 32.9379L36.0324 33.9674L34.9999 34.9999ZM36.4583 61.2499C36.4583 61.6367 36.3046 62.0077 36.0311 62.2811C35.7577 62.5546 35.3867 62.7083 34.9999 62.7083C34.6132 62.7083 34.2422 62.5546 33.9687 62.2811C33.6953 62.0077 33.5416 61.6367 33.5416 61.2499H36.4583ZM22.3008 45.6341L33.9674 33.9674L36.0324 36.0324L24.3658 47.6991L22.3008 45.6341ZM36.0324 33.9674L47.6991 45.6341L45.6341 47.6991L33.9674 36.0324L36.0324 33.9674ZM36.4583 34.9999V61.2499H33.5416V34.9999H36.4583Z" fill="#4076AA"/>
</svg>
