<svg width="24" height="18" viewBox="0 0 24 18" fill="none" xmlns="http://www.w3.org/2000/svg">
<path fill-rule="evenodd" clip-rule="evenodd" d="M12 16.5929C10.709 17.1853 9.29032 17.443 7.87418 17.3422C6.45804 17.2414 5.08985 16.7853 3.89525 16.0158C2.70064 15.2464 1.71791 14.1882 1.0373 12.9385C0.356684 11.6888 0 10.2876 0 8.86353C0 7.4395 0.356684 6.03829 1.0373 4.78857C1.71791 3.53885 2.70064 2.48068 3.89525 1.71122C5.08985 0.941764 6.45804 0.485683 7.87418 0.384859C9.29032 0.284035 10.709 0.541701 12 1.13419C13.291 0.541701 14.7097 0.284035 16.1258 0.384859C17.542 0.485683 18.9101 0.941764 20.1048 1.71122C21.2994 2.48068 22.2821 3.53885 22.9627 4.78857C23.6433 6.03829 24 7.4395 24 8.86353C24 10.2876 23.6433 11.6888 22.9627 12.9385C22.2821 14.1882 21.2994 15.2464 20.1048 16.0158C18.9101 16.7853 17.542 17.2414 16.1258 17.3422C14.7097 17.443 13.291 17.1853 12 16.5929ZM9.17528 14.4863C8.38033 14.5861 7.57329 14.5152 6.80774 14.2783C6.04218 14.0414 5.33562 13.6439 4.73495 13.1121C4.13428 12.5804 3.65323 11.9265 3.32374 11.194C2.99425 10.4615 2.82385 9.66713 2.82385 8.86353C2.82385 8.05992 2.99425 7.26551 3.32374 6.53301C3.65323 5.80051 4.13428 5.14669 4.73495 4.61493C5.33562 4.08317 6.04218 3.68564 6.80774 3.44872C7.57329 3.21181 8.38033 3.14092 9.17528 3.24078C7.80765 4.79228 7.054 6.79254 7.05674 8.86353C7.054 10.9345 7.80765 12.9348 9.17528 14.4863ZM14.8247 3.24078C15.0554 3.21244 15.2908 3.1978 15.5309 3.19686C16.3022 3.19744 17.0653 3.35644 17.773 3.66408C18.4808 3.97171 19.1182 4.42146 19.6461 4.98561C20.1739 5.54976 20.581 6.21635 20.8423 6.94432C21.1035 7.67228 21.2134 8.4462 21.1651 9.21837C21.1168 9.99054 20.9113 10.7446 20.5614 11.4341C20.2115 12.1236 19.7245 12.7339 19.1305 13.2275C18.5365 13.721 17.848 14.0873 17.1075 14.3038C16.367 14.5203 15.5901 14.5824 14.8247 14.4863C16.1923 12.9348 16.946 10.9345 16.9433 8.86353C16.946 6.79254 16.1923 4.79228 14.8247 3.24078ZM12 4.43928C13.2923 5.47769 14.1185 7.07428 14.1185 8.86353C14.1185 10.6528 13.2923 12.2494 12 13.2878C11.3388 12.7568 10.8051 12.0835 10.4384 11.3177C10.0717 10.5518 9.88135 9.7131 9.88146 8.86353C9.88146 7.07428 10.7077 5.47769 12 4.43928Z" fill="white"/>
</svg>
