<svg width="21" height="20" viewBox="0 0 21 20" fill="none" xmlns="http://www.w3.org/2000/svg">
<path d="M15.6602 0.381836L15.8452 0.386836C16.642 0.432202 17.3942 0.769158 17.9585 1.33348C18.5229 1.89781 18.8598 2.65005 18.9052 3.44684L18.9102 3.63184V9.40384C18.4425 9.1044 17.9384 8.86612 17.4102 8.69484L17.4092 5.38184H2.41018L2.40918 15.1318C2.4092 15.571 2.57435 15.9942 2.87186 16.3172C3.16937 16.6403 3.57748 16.8397 4.01518 16.8758L4.15918 16.8818H9.22318C9.39518 17.4158 9.63518 17.9188 9.93118 18.3818H4.15918C3.32904 18.3819 2.53035 18.0643 1.92695 17.4942C1.32355 16.924 0.961178 16.1446 0.91418 15.3158L0.90918 15.1318V3.63184C0.909125 2.8017 1.22673 2.00301 1.79685 1.39961C2.36697 0.796203 3.14637 0.433835 3.97518 0.386836L4.15918 0.381836H15.6602ZM15.6602 1.88184H4.16018C3.69605 1.88184 3.25093 2.06621 2.92274 2.3944C2.59455 2.72259 2.41018 3.16771 2.41018 3.63184V3.88184H17.4102V3.63184C17.4102 3.16771 17.2258 2.72259 16.8976 2.3944C16.5694 2.06621 16.1243 1.88184 15.6602 1.88184ZM8.15918 6.88184C8.34042 6.88184 8.51552 6.94748 8.65211 7.0666C8.7887 7.18573 8.87753 7.35028 8.90218 7.52984L8.90918 7.63184V14.6318C8.90917 14.8131 8.84354 14.9882 8.72441 15.1248C8.60529 15.2614 8.44073 15.3502 8.26118 15.3748L8.15918 15.3818H4.65918C4.47794 15.3818 4.30284 15.3162 4.16625 15.1971C4.02966 15.0779 3.94083 14.9134 3.91618 14.7338L3.90918 14.6318V7.63184C3.90919 7.4506 3.97482 7.27549 4.09395 7.13891C4.21307 7.00232 4.37763 6.91348 4.55718 6.88884L4.65918 6.88184H8.15918ZM7.40918 8.38184H5.40918V13.8818H7.40918V8.38184ZM15.9092 7.63184C15.9092 7.43292 15.8302 7.24216 15.6895 7.10151C15.5489 6.96085 15.3581 6.88184 15.1592 6.88184H10.6632L10.5622 6.88884C10.374 6.91472 10.2027 7.01104 10.0828 7.15834C9.96285 7.30564 9.90329 7.49295 9.91611 7.68246C9.92893 7.87196 10.0132 8.04955 10.1518 8.17935C10.2905 8.30916 10.4732 8.38153 10.6632 8.38184H15.1592L15.2612 8.37484C15.4407 8.35019 15.6053 8.26135 15.7244 8.12477C15.8435 7.98818 15.9092 7.81307 15.9092 7.63184ZM12.1892 11.3568C12.2639 11.6155 12.2857 11.8866 12.2531 12.1539C12.2206 12.4212 12.1344 12.6791 11.9998 12.9123C11.8651 13.1455 11.6848 13.3491 11.4695 13.5109C11.2543 13.6726 11.0086 13.7893 10.7472 13.8538L10.1632 13.9978C10.0691 14.5967 10.0711 15.2067 10.1692 15.8048L10.7092 15.9348C10.9728 15.9983 11.2207 16.1147 11.4379 16.277C11.6551 16.4393 11.837 16.644 11.9726 16.8788C12.1082 17.1135 12.1947 17.3734 12.2268 17.6426C12.2589 17.9119 12.2359 18.1848 12.1592 18.4448L11.9722 19.0768C12.4122 19.4628 12.9122 19.7758 13.4562 19.9978L13.9502 19.4798C14.137 19.2833 14.3618 19.1268 14.611 19.0199C14.8602 18.913 15.1285 18.8579 15.3997 18.8579C15.6708 18.8579 15.9392 18.913 16.1883 19.0199C16.4375 19.1268 16.6624 19.2833 16.8492 19.4798L17.3472 20.0048C17.8885 19.7844 18.3896 19.4759 18.8302 19.0918L18.6322 18.4058C18.5576 18.1472 18.5359 17.8762 18.5686 17.6091C18.6012 17.3419 18.6874 17.084 18.822 16.851C18.9567 16.6179 19.137 16.4144 19.3521 16.2527C19.5673 16.091 19.8129 15.9744 20.0742 15.9098L20.6572 15.7658C20.7514 15.1667 20.7494 14.5563 20.6512 13.9578L20.1112 13.8278C19.8476 13.7643 19.5997 13.6479 19.3825 13.4857C19.1653 13.3234 18.9834 13.1186 18.8477 12.8839C18.7121 12.6491 18.6256 12.3892 18.5936 12.12C18.5615 11.8508 18.5845 11.5779 18.6612 11.3178L18.8482 10.6878C18.408 10.3002 17.9065 9.98827 17.3642 9.76484L16.8712 10.2838C16.6843 10.4805 16.4594 10.6371 16.2102 10.7441C15.9609 10.8512 15.6925 10.9063 15.4212 10.9063C15.1499 10.9063 14.8815 10.8512 14.6322 10.7441C14.3829 10.6371 14.158 10.4805 13.9712 10.2838L13.4732 9.75884C12.9292 9.97884 12.4292 10.2888 11.9902 10.6708L12.1892 11.3568ZM15.4092 16.3818C14.6092 16.3818 13.9592 15.7098 13.9592 14.8818C13.9592 14.0528 14.6092 13.3818 15.4092 13.3818C16.2092 13.3818 16.8592 14.0528 16.8592 14.8818C16.8592 15.7098 16.2092 16.3818 15.4092 16.3818Z" fill="white"/>
</svg>
