<svg width="51" height="51" viewBox="0 0 51 51" fill="none" xmlns="http://www.w3.org/2000/svg">
<path d="M25.6758 0.593994C27.9707 0.593994 30.1842 0.886963 32.3164 1.4729C34.4486 2.05884 36.4342 2.90519 38.2734 4.01196C40.1126 5.11873 41.7972 6.42082 43.3271 7.91821C44.8571 9.41561 46.1673 11.1002 47.2578 12.9719C48.3483 14.8437 49.1865 16.8375 49.7725 18.9534C50.3584 21.0693 50.6595 23.2828 50.6758 25.594C50.6758 27.8889 50.3828 30.1025 49.7969 32.2346C49.2109 34.3668 48.3646 36.3525 47.2578 38.1917C46.151 40.0308 44.849 41.7154 43.3516 43.2454C41.8542 44.7753 40.1696 46.0855 38.2979 47.176C36.4261 48.2665 34.4323 49.1047 32.3164 49.6907C30.2005 50.2766 27.987 50.5777 25.6758 50.594C23.3809 50.594 21.1673 50.301 19.0352 49.7151C16.903 49.1292 14.9173 48.2828 13.0781 47.176C11.2389 46.0693 9.55436 44.7672 8.02441 43.2698C6.49447 41.7724 5.18424 40.0878 4.09375 38.2161C3.00326 36.3443 2.16504 34.3505 1.5791 32.2346C0.993164 30.1187 0.692057 27.9052 0.675781 25.594C0.675781 23.2991 0.96875 21.0855 1.55469 18.9534C2.14062 16.8212 2.98698 14.8355 4.09375 12.9963C5.20052 11.1571 6.5026 9.47258 8 7.94263C9.4974 6.41268 11.182 5.10246 13.0537 4.01196C14.9255 2.92147 16.9193 2.08325 19.0352 1.49731C21.151 0.911377 23.3646 0.61027 25.6758 0.593994ZM40.3975 17.3176L37.0771 13.9973L20.9883 30.0862L14.2744 23.3723L10.9541 26.6926L20.9883 36.7268L40.3975 17.3176Z" fill="#00CE15"/>
</svg>
