<svg width="20" height="22" viewBox="0 0 20 22" fill="none" xmlns="http://www.w3.org/2000/svg">
<path d="M18.75 0.062588H3.4375C2.63391 0.039005 1.85375 0.334953 1.26798 0.885574C0.682214 1.4362 0.338621 2.19658 0.3125 3.00009V18.5001C0.345112 19.4429 0.750332 20.3342 1.43928 20.9787C2.12822 21.6231 3.04463 21.9679 3.9875 21.9376H18.75C18.9976 21.9344 19.2342 21.8345 19.4093 21.6594C19.5845 21.4843 19.6843 21.2477 19.6875 21.0001V1.00009C19.6843 0.752454 19.5845 0.515874 19.4093 0.340755C19.2342 0.165637 18.9976 0.0658254 18.75 0.062588ZM17.8125 20.0626H3.9875C3.54173 20.0935 3.10189 19.9464 2.76445 19.6535C2.42702 19.3606 2.21953 18.9458 2.1875 18.5001C2.21953 18.0544 2.42702 17.6396 2.76445 17.3467C3.10189 17.0538 3.54173 16.9067 3.9875 16.9376H17.8125V20.0626ZM17.8125 15.0626H3.9875C3.3582 15.0633 2.73919 15.2223 2.1875 15.5251V3.00009C2.21613 2.69495 2.36285 2.41307 2.59637 2.21457C2.8299 2.01608 3.13173 1.91668 3.4375 1.93759H17.8125V15.0626Z" fill="black"/>
</svg>
