<svg width="24" height="24" viewBox="0 0 24 24" fill="none" xmlns="http://www.w3.org/2000/svg">
<path d="M21.1466 17.5048C20.4132 16.771 19.5564 16.172 18.6153 15.7353C19.9425 14.6601 20.7891 13.0195 20.7891 11.1796C20.7891 7.93355 18.0821 5.27046 14.836 5.32027C11.6397 5.37007 9.06453 7.97456 9.06453 11.1796C9.06453 13.0195 9.91414 14.6601 11.2384 15.7353C10.2971 16.1717 9.44019 16.7707 8.7071 17.5048C7.1075 19.1074 6.19929 21.2226 6.1407 23.4785C6.13992 23.5097 6.1454 23.5408 6.15683 23.57C6.16826 23.5991 6.1854 23.6256 6.20724 23.648C6.22908 23.6704 6.25518 23.6882 6.28401 23.7003C6.31283 23.7125 6.3438 23.7187 6.37507 23.7187H8.0157C8.14167 23.7187 8.24714 23.6191 8.25007 23.4931C8.30574 21.7939 8.99421 20.2031 10.2042 18.996C10.8233 18.3736 11.5598 17.8801 12.3709 17.5442C13.1821 17.2083 14.0518 17.0366 14.9298 17.039C16.7139 17.039 18.3927 17.7334 19.6553 18.996C20.8624 20.2031 21.5509 21.7939 21.6094 23.4931C21.6124 23.6191 21.7178 23.7187 21.8438 23.7187H23.4844C23.5157 23.7187 23.5467 23.7125 23.5755 23.7003C23.6043 23.6882 23.6304 23.6704 23.6523 23.648C23.6741 23.6256 23.6913 23.5991 23.7027 23.57C23.7141 23.5408 23.7196 23.5097 23.7188 23.4785C23.6602 21.2226 22.752 19.1074 21.1466 17.5048ZM14.9298 14.9296C13.9278 14.9296 12.9844 14.54 12.2784 13.831C11.9241 13.4795 11.6442 13.0601 11.4554 12.5981C11.2667 12.136 11.1729 11.6406 11.1798 11.1416C11.1885 10.1806 11.5723 9.25191 12.2432 8.56343C12.9464 7.84273 13.8868 7.44136 14.8917 7.42964C15.8848 7.42085 16.8487 7.80757 17.5577 8.50191C18.2843 9.21382 18.6827 10.166 18.6827 11.1796C18.6827 12.1816 18.293 13.122 17.5841 13.831C17.2362 14.1805 16.8225 14.4576 16.3669 14.6461C15.9113 14.8347 15.4228 14.9311 14.9298 14.9296ZM7.59089 11.9531C7.56453 11.6982 7.54988 11.4404 7.54988 11.1796C7.54988 10.7138 7.59382 10.2597 7.67585 9.81734C7.69636 9.71187 7.6407 9.60347 7.54402 9.55953C7.14558 9.38081 6.77937 9.13472 6.46296 8.82417C6.09013 8.46267 5.79675 8.02742 5.60153 7.54619C5.40632 7.06497 5.31356 6.54833 5.32917 6.02925C5.35554 5.08882 5.73347 4.19527 6.39265 3.52144C7.11628 2.78023 8.08894 2.37593 9.12312 2.38765C10.0577 2.39644 10.96 2.75679 11.6427 3.39546C11.8741 3.61226 12.0733 3.85249 12.2403 4.11031C12.2989 4.20113 12.4132 4.23921 12.5128 4.20406C13.0284 4.02535 13.5733 3.89937 14.1329 3.84078C14.2969 3.8232 14.3907 3.64742 14.3175 3.50093C13.3653 1.61714 11.42 0.316361 9.17 0.281205C5.92097 0.2314 3.21394 2.89449 3.21394 6.13765C3.21394 7.97749 4.06062 9.61812 5.38777 10.6933C4.45613 11.124 3.59773 11.7187 2.85359 12.4628C1.24812 14.0654 0.339917 16.1806 0.281323 18.4394C0.280541 18.4707 0.286026 18.5018 0.297454 18.5309C0.308881 18.56 0.326021 18.5865 0.347863 18.6089C0.369706 18.6313 0.395808 18.6491 0.424633 18.6613C0.453457 18.6734 0.48442 18.6797 0.515698 18.6796H2.15925C2.28523 18.6796 2.3907 18.58 2.39363 18.4541C2.44929 16.7548 3.13777 15.164 4.34773 13.957C5.20906 13.0957 6.26375 12.498 7.41511 12.208C7.52937 12.1787 7.60554 12.0703 7.59089 11.9531Z" fill="black"/>
</svg>
