<svg width="24" height="25" viewBox="0 0 24 25" fill="none" xmlns="http://www.w3.org/2000/svg">
<path d="M10 5.18774H14C14 4.65731 13.7893 4.1486 13.4142 3.77353C13.0391 3.39846 12.5304 3.18774 12 3.18774C11.4696 3.18774 10.9609 3.39846 10.5858 3.77353C10.2107 4.1486 10 4.65731 10 5.18774ZM8.5 5.18774C8.5 4.72812 8.59053 4.27299 8.76642 3.84835C8.94231 3.42371 9.20012 3.03788 9.52513 2.71287C9.85013 2.38787 10.236 2.13006 10.6606 1.95417C11.0852 1.77827 11.5404 1.68774 12 1.68774C12.4596 1.68774 12.9148 1.77827 13.3394 1.95417C13.764 2.13006 14.1499 2.38787 14.4749 2.71287C14.7999 3.03788 15.0577 3.42371 15.2336 3.84835C15.4095 4.27299 15.5 4.72812 15.5 5.18774H21.25C21.4489 5.18774 21.6397 5.26676 21.7803 5.40741C21.921 5.54807 22 5.73883 22 5.93774C22 6.13666 21.921 6.32742 21.7803 6.46807C21.6397 6.60873 21.4489 6.68774 21.25 6.68774H19.93L18.76 18.7987C18.6702 19.7267 18.238 20.588 17.5477 21.2146C16.8573 21.8411 15.9583 22.1881 15.026 22.1877H8.974C8.04186 22.1878 7.1431 21.8408 6.45295 21.2142C5.7628 20.5877 5.33073 19.7266 5.241 18.7987L4.07 6.68774H2.75C2.55109 6.68774 2.36032 6.60873 2.21967 6.46807C2.07902 6.32742 2 6.13666 2 5.93774C2 5.73883 2.07902 5.54807 2.21967 5.40741C2.36032 5.26676 2.55109 5.18774 2.75 5.18774H8.5ZM10.5 9.93774C10.5 9.73883 10.421 9.54807 10.2803 9.40741C10.1397 9.26676 9.94891 9.18774 9.75 9.18774C9.55109 9.18774 9.36032 9.26676 9.21967 9.40741C9.07902 9.54807 9 9.73883 9 9.93774V17.4377C9 17.6367 9.07902 17.8274 9.21967 17.9681C9.36032 18.1087 9.55109 18.1877 9.75 18.1877C9.94891 18.1877 10.1397 18.1087 10.2803 17.9681C10.421 17.8274 10.5 17.6367 10.5 17.4377V9.93774ZM14.25 9.18774C14.4489 9.18774 14.6397 9.26676 14.7803 9.40741C14.921 9.54807 15 9.73883 15 9.93774V17.4377C15 17.6367 14.921 17.8274 14.7803 17.9681C14.6397 18.1087 14.4489 18.1877 14.25 18.1877C14.0511 18.1877 13.8603 18.1087 13.7197 17.9681C13.579 17.8274 13.5 17.6367 13.5 17.4377V9.93774C13.5 9.73883 13.579 9.54807 13.7197 9.40741C13.8603 9.26676 14.0511 9.18774 14.25 9.18774ZM6.734 18.6547C6.78794 19.2114 7.04724 19.728 7.46137 20.1039C7.87549 20.4797 8.41475 20.6879 8.974 20.6877H15.026C15.5853 20.6879 16.1245 20.4797 16.5386 20.1039C16.9528 19.728 17.2121 19.2114 17.266 18.6547L18.424 6.68774H5.576L6.734 18.6547Z" fill="black"/>
</svg>
