<svg width="26" height="24" viewBox="0 0 26 24" fill="none" xmlns="http://www.w3.org/2000/svg">
<path d="M24.5625 12.0001H9.11875M3.6675 12.0001H1.4375M3.6675 12.0001C3.6675 11.2774 3.9546 10.5843 4.46563 10.0732C4.97667 9.5622 5.66979 9.27511 6.3925 9.27511C7.11522 9.27511 7.80833 9.5622 8.31937 10.0732C8.8304 10.5843 9.1175 11.2774 9.1175 12.0001C9.1175 12.7228 8.8304 13.4159 8.31937 13.927C7.80833 14.438 7.11522 14.7251 6.3925 14.7251C5.66979 14.7251 4.97667 14.438 4.46563 13.927C3.9546 13.4159 3.6675 12.7228 3.6675 12.0001ZM24.5625 20.2589H17.3775M17.3775 20.2589C17.3775 20.9817 17.0897 21.6756 16.5786 22.1868C16.0674 22.6979 15.3741 22.9851 14.6513 22.9851C13.9285 22.9851 13.2354 22.6968 12.7244 22.1857C12.2133 21.6747 11.9262 20.9816 11.9262 20.2589M17.3775 20.2589C17.3775 19.536 17.0897 18.8433 16.5786 18.3322C16.0674 17.821 15.3741 17.5339 14.6513 17.5339C13.9285 17.5339 13.2354 17.821 12.7244 18.332C12.2133 18.843 11.9262 19.5361 11.9262 20.2589M11.9262 20.2589H1.4375M24.5625 3.74136H20.6813M15.23 3.74136H1.4375M15.23 3.74136C15.23 3.01864 15.5171 2.32553 16.0281 1.81449C16.5392 1.30345 17.2323 1.01636 17.955 1.01636C18.3129 1.01636 18.6672 1.08684 18.9978 1.22379C19.3284 1.36073 19.6288 1.56145 19.8819 1.81449C20.1349 2.06753 20.3356 2.36793 20.4726 2.69855C20.6095 3.02916 20.68 3.38351 20.68 3.74136C20.68 4.09921 20.6095 4.45356 20.4726 4.78417C20.3356 5.11478 20.1349 5.41518 19.8819 5.66822C19.6288 5.92126 19.3284 6.12199 18.9978 6.25893C18.6672 6.39587 18.3129 6.46636 17.955 6.46636C17.2323 6.46636 16.5392 6.17926 16.0281 5.66822C15.5171 5.15719 15.23 4.46407 15.23 3.74136Z" stroke="#5A5F7D" stroke-width="1.5" stroke-miterlimit="10" stroke-linecap="round"/>
</svg>
