<svg width="21" height="21" viewBox="0 0 21 21" fill="none" xmlns="http://www.w3.org/2000/svg">
<path d="M10.8592 16.9089C11.2092 16.9089 11.5052 16.7879 11.7472 16.5459C11.9892 16.3039 12.1098 16.0083 12.1092 15.6589C12.1085 15.3096 11.9878 15.0136 11.7472 14.7709C11.5065 14.5283 11.2105 14.4076 10.8592 14.4089C10.5078 14.4103 10.2122 14.5313 9.97218 14.7719C9.73218 15.0126 9.61118 15.3083 9.60918 15.6589C9.60718 16.0096 9.72818 16.3056 9.97218 16.5469C10.2162 16.7883 10.5118 16.9089 10.8592 16.9089ZM9.95918 13.0589H11.8092C11.8092 12.5089 11.8718 12.0756 11.9972 11.7589C12.1225 11.4423 12.4765 11.0089 13.0592 10.4589C13.4925 10.0256 13.8342 9.61294 14.0842 9.22094C14.3342 8.82894 14.4592 8.35827 14.4592 7.80894C14.4592 6.87561 14.1175 6.15894 13.4342 5.65894C12.7508 5.15894 11.9425 4.90894 11.0092 4.90894C10.0592 4.90894 9.28851 5.15894 8.69718 5.65894C8.10585 6.15894 7.69318 6.75894 7.45918 7.45894L9.10918 8.10894C9.19251 7.80894 9.38018 7.48394 9.67218 7.13394C9.96418 6.78394 10.4098 6.60894 11.0092 6.60894C11.5425 6.60894 11.9425 6.75494 12.2092 7.04694C12.4758 7.33894 12.6092 7.65961 12.6092 8.00894C12.6092 8.34227 12.5092 8.65494 12.3092 8.94694C12.1092 9.23894 11.8592 9.50961 11.5592 9.75894C10.8258 10.4089 10.3758 10.9006 10.2092 11.2339C10.0425 11.5673 9.95918 12.1756 9.95918 13.0589ZM10.9092 20.9089C9.52585 20.9089 8.22585 20.6466 7.00918 20.1219C5.79251 19.5973 4.73418 18.8846 3.83418 17.9839C2.93418 17.0833 2.22185 16.0249 1.69718 14.8089C1.17251 13.5929 0.909848 12.2929 0.909181 10.9089C0.908514 9.52494 1.17118 8.22494 1.69718 7.00894C2.22318 5.79294 2.93551 4.73461 3.83418 3.83394C4.73285 2.93327 5.79118 2.22094 7.00918 1.69694C8.22718 1.17294 9.52718 0.910274 10.9092 0.908941C12.2912 0.907607 13.5912 1.17027 14.8092 1.69694C16.0272 2.22361 17.0855 2.93594 17.9842 3.83394C18.8828 4.73194 19.5955 5.79027 20.1222 7.00894C20.6488 8.22761 20.9112 9.52761 20.9092 10.9089C20.9072 12.2903 20.6445 13.5903 20.1212 14.8089C19.5978 16.0276 18.8855 17.0859 17.9842 17.9839C17.0828 18.8819 16.0245 19.5946 14.8092 20.1219C13.5938 20.6493 12.2938 20.9116 10.9092 20.9089ZM10.9092 18.9089C13.1425 18.9089 15.0342 18.1339 16.5842 16.5839C18.1342 15.0339 18.9092 13.1423 18.9092 10.9089C18.9092 8.67561 18.1342 6.78394 16.5842 5.23394C15.0342 3.68394 13.1425 2.90894 10.9092 2.90894C8.67585 2.90894 6.78418 3.68394 5.23418 5.23394C3.68418 6.78394 2.90918 8.67561 2.90918 10.9089C2.90918 13.1423 3.68418 15.0339 5.23418 16.5839C6.78418 18.1339 8.67585 18.9089 10.9092 18.9089Z" fill="white"/>
</svg>
