<svg width="28" height="28" viewBox="0 0 28 28" fill="none" xmlns="http://www.w3.org/2000/svg">
<path d="M10.25 24H6.5C5.17392 24 3.90215 23.4732 2.96447 22.5355C2.02678 21.5979 1.5 20.3261 1.5 19V7.75C1.5 6.42392 2.02678 5.15215 2.96447 4.21447C3.90215 3.27678 5.17392 2.75 6.5 2.75H20.25C21.5761 2.75 22.8479 3.27678 23.7855 4.21447C24.7232 5.15215 25.25 6.42392 25.25 7.75V11.5M9 1.5V4M17.75 1.5V4M1.5 9H25.25M22.125 18.5537L20.25 20.4287" stroke="black" stroke-width="2" stroke-linecap="round" stroke-linejoin="round"/>
<path d="M20.25 26.5C23.7018 26.5 26.5 23.7018 26.5 20.25C26.5 16.7982 23.7018 14 20.25 14C16.7982 14 14 16.7982 14 20.25C14 23.7018 16.7982 26.5 20.25 26.5Z" stroke="black" stroke-width="2" stroke-linecap="round" stroke-linejoin="round"/>
</svg>
