<svg width="23" height="24" viewBox="0 0 23 24" fill="none" xmlns="http://www.w3.org/2000/svg">
<path d="M8.1875 0.984409H2.5625C2.12738 0.984409 1.71008 1.15726 1.4024 1.46494C1.09473 1.77261 0.921875 2.18991 0.921875 2.62503V21.375C0.921875 21.8102 1.09473 22.2275 1.4024 22.5351C1.71008 22.8428 2.12738 23.0157 2.5625 23.0157H8.1875C8.40295 23.0157 8.61629 22.9732 8.81534 22.8908C9.01439 22.8083 9.19525 22.6875 9.3476 22.5351C9.49994 22.3828 9.62079 22.2019 9.70324 22.0029C9.78569 21.8038 9.82812 21.5905 9.82812 21.375V2.62503C9.82812 2.40958 9.78569 2.19624 9.70324 1.99719C9.62079 1.79814 9.49994 1.61728 9.3476 1.46494C9.19525 1.31259 9.01439 1.19174 8.81534 1.10929C8.61629 1.02685 8.40295 0.984409 8.1875 0.984409ZM2.32812 6.14066H8.42188V17.8594H2.32812V6.14066ZM2.5625 2.39066H8.1875C8.24966 2.39066 8.30927 2.41535 8.35323 2.45931C8.39718 2.50326 8.42188 2.56287 8.42188 2.62503V4.73441H2.32812V2.62503C2.32812 2.56287 2.35282 2.50326 2.39677 2.45931C2.44073 2.41535 2.50034 2.39066 2.5625 2.39066ZM8.1875 21.6094H2.5625C2.50034 21.6094 2.44073 21.5847 2.39677 21.5408C2.35282 21.4968 2.32812 21.4372 2.32812 21.375V19.2657H8.42188V21.375C8.42188 21.4372 8.39718 21.4968 8.35323 21.5408C8.30927 21.5847 8.24966 21.6094 8.1875 21.6094ZM22.918 19.8516L19.0285 1.35472C18.9846 1.14297 18.8993 0.941988 18.7774 0.763331C18.6556 0.584674 18.4996 0.431869 18.3185 0.313704C18.1374 0.195538 17.9347 0.114345 17.7221 0.0747932C17.5095 0.0352412 17.2912 0.0381109 17.0797 0.0832375L11.5941 1.26214C11.1696 1.35546 10.799 1.61242 10.5627 1.97726C10.3264 2.34211 10.2435 2.7854 10.332 3.21097L14.2215 21.7043C14.2657 21.9168 14.3517 22.1184 14.4744 22.2974C14.5971 22.4765 14.7541 22.6294 14.9363 22.7473C15.2 22.9198 15.5083 23.0119 15.8234 23.0121C15.9417 23.0127 16.0596 23.0001 16.175 22.9746L21.6605 21.7969C22.0835 21.7025 22.4523 21.4457 22.6876 21.0817C22.9228 20.7178 23.0056 20.276 22.918 19.8516ZM13.2137 10.0875L19.1586 8.81019L20.8133 16.6805L14.8672 17.9543L13.2137 10.0875ZM12.4367 6.3891L18.3828 5.10824L18.8691 7.42972L12.9242 8.70707L12.4367 6.3891ZM11.8906 2.6391L17.375 1.46136C17.3914 1.45964 17.4079 1.45964 17.4242 1.46136C17.468 1.46148 17.5108 1.47453 17.5473 1.49886C17.5742 1.516 17.5973 1.53846 17.6153 1.56486C17.6332 1.59125 17.6455 1.62104 17.6516 1.65238L18.091 3.74066L12.1473 5.00863L11.709 2.92503C11.6953 2.86275 11.7067 2.79759 11.7407 2.74363C11.7747 2.68968 11.8285 2.65128 11.8906 2.63675V2.6391ZM21.3605 20.4282L15.875 21.6094C15.8456 21.6159 15.8153 21.6165 15.7857 21.611C15.7561 21.6056 15.7279 21.5943 15.7027 21.5778C15.6758 21.5606 15.6527 21.5382 15.6347 21.5118C15.6168 21.4854 15.6045 21.4556 15.5984 21.4243L15.159 19.336L21.1027 18.0586L21.5469 20.1364C21.5538 20.1676 21.5544 20.1999 21.5487 20.2314C21.5431 20.2629 21.5313 20.293 21.514 20.3199C21.4966 20.3468 21.4742 20.37 21.4478 20.3882C21.4215 20.4064 21.3918 20.4191 21.3605 20.4258V20.4282Z" fill="#5A5F7D"/>
</svg>
