<svg width="24" height="24" viewBox="0 0 24 24" fill="none" xmlns="http://www.w3.org/2000/svg">
<path d="M13.875 5.75L18.25 10.125M5.75 13.875L10.125 18.25M10.125 5.75L5.75 10.125M18.25 13.875L13.875 18.25" stroke="#5A5F7D" stroke-width="1.5" stroke-linecap="round"/>
<path d="M12 6.375C13.3807 6.375 14.5 5.25571 14.5 3.875C14.5 2.49429 13.3807 1.375 12 1.375C10.6193 1.375 9.5 2.49429 9.5 3.875C9.5 5.25571 10.6193 6.375 12 6.375Z" stroke="#5A5F7D" stroke-width="1.5"/>
<path d="M12 22.625C13.3807 22.625 14.5 21.5057 14.5 20.125C14.5 18.7443 13.3807 17.625 12 17.625C10.6193 17.625 9.5 18.7443 9.5 20.125C9.5 21.5057 10.6193 22.625 12 22.625Z" stroke="#5A5F7D" stroke-width="1.5"/>
<path d="M3.875 14.5C5.25571 14.5 6.375 13.3807 6.375 12C6.375 10.6193 5.25571 9.5 3.875 9.5C2.49429 9.5 1.375 10.6193 1.375 12C1.375 13.3807 2.49429 14.5 3.875 14.5Z" stroke="#5A5F7D" stroke-width="1.5"/>
<path d="M20.125 14.5C21.5057 14.5 22.625 13.3807 22.625 12C22.625 10.6193 21.5057 9.5 20.125 9.5C18.7443 9.5 17.625 10.6193 17.625 12C17.625 13.3807 18.7443 14.5 20.125 14.5Z" stroke="#5A5F7D" stroke-width="1.5"/>
</svg>
