<svg width="51" height="51" viewBox="0 0 51 51" fill="none" xmlns="http://www.w3.org/2000/svg">
<path d="M24.0778 4.76074C21.0389 4.76074 18.1244 5.96796 15.9755 8.11681C13.8267 10.2657 12.6195 13.1801 12.6195 16.2191C12.6195 19.258 13.8267 22.1725 15.9755 24.3213C18.1244 26.4702 21.0389 27.6774 24.0778 27.6774C27.1167 27.6774 30.0312 26.4702 32.1801 24.3213C34.3289 22.1725 35.5361 19.258 35.5361 16.2191C35.5361 13.1801 34.3289 10.2657 32.1801 8.11681C30.0312 5.96796 27.1167 4.76074 24.0778 4.76074ZM26.9445 29.7607C25.0822 32.1389 24.0727 35.0736 24.0778 38.0941C24.0778 41.2378 25.1486 44.1295 26.9445 46.4274H4.28613V42.2607C4.28613 38.9455 5.60309 35.7661 7.9473 33.4219C10.2915 31.0777 13.4709 29.7607 16.7861 29.7607H26.9445Z" fill="#FF6F6F"/>
<path d="M34.1361 37.7676L29.6361 31.844H32.3611L35.4611 36.2202L38.6861 31.844H41.2361L36.7861 37.5983L41.7861 44.344H39.0611L35.4611 39.1699L31.8611 44.344H29.2861L34.1361 37.7676Z" fill="#FF6F6F"/>
</svg>
