<svg width="27" height="31" viewBox="0 0 27 31" fill="none" xmlns="http://www.w3.org/2000/svg">
<path d="M13.7773 31.0002C15.5677 31.0002 17.0327 29.5791 17.0327 27.8423H10.5219C10.5219 29.5791 11.9869 31.0002 13.7773 31.0002ZM23.5434 21.5265V13.6317C23.5434 8.78438 20.8903 4.72648 16.2188 3.6528V2.57911C16.2188 1.26859 15.1283 0.210693 13.7773 0.210693C12.4263 0.210693 11.3358 1.26859 11.3358 2.57911V3.6528C6.68062 4.72648 4.01122 8.76859 4.01122 13.6317V21.5265L0.755859 24.6844V26.2633H26.7987V24.6844L23.5434 21.5265ZM20.288 23.1054H7.26658V13.6317C7.26658 9.71596 9.72438 6.52648 13.7773 6.52648C17.8302 6.52648 20.288 9.71596 20.288 13.6317V23.1054Z" fill="#5A5F7D"/>
</svg>
