<svg width="24" height="18" viewBox="0 0 24 18" fill="none" xmlns="http://www.w3.org/2000/svg">
<path d="M2.90908 5.88615C2.90897 5.01595 3.12516 4.15938 3.53822 3.39347C3.95127 2.62756 4.54823 1.97634 5.2754 1.49837C6.00257 1.0204 6.83715 0.730672 7.70407 0.655254C8.57098 0.579836 9.44305 0.721089 10.2418 1.06631C11.0406 1.41153 11.7411 1.94988 12.2802 2.63296C12.8193 3.31604 13.1802 4.1224 13.3303 4.97954C13.4805 5.83668 13.4152 6.7177 13.1404 7.54336C12.8656 8.36903 12.3899 9.11344 11.7561 9.70965C12.9511 10.2898 13.9887 11.1495 14.781 12.2159C15.5732 13.2823 16.0967 14.524 16.3071 15.8356C16.3302 15.9816 16.3244 16.1307 16.2899 16.2744C16.2554 16.4181 16.193 16.5536 16.1062 16.6732C16.0193 16.7928 15.9098 16.8941 15.7838 16.9713C15.6578 17.0486 15.5178 17.1002 15.3718 17.1234C15.2259 17.1465 15.0768 17.1407 14.9331 17.1062C14.7893 17.0718 14.6538 17.0093 14.5343 16.9225C14.4147 16.8356 14.3134 16.7261 14.2361 16.6001C14.1589 16.4741 14.1072 16.3341 14.0841 16.1881C13.8591 14.7786 13.139 13.4954 12.053 12.5691C10.9671 11.6427 9.58646 11.1339 8.15907 11.1339C6.73169 11.1339 5.35107 11.6427 4.26512 12.5691C3.17918 13.4954 2.45906 14.7786 2.23408 16.1881C2.21083 16.3341 2.15907 16.4741 2.08173 16.6C2.0044 16.726 1.90301 16.8355 1.78337 16.9223C1.66372 17.009 1.52815 17.0714 1.3844 17.1058C1.24065 17.1402 1.09154 17.1459 0.945575 17.1226C0.799611 17.0994 0.659654 17.0476 0.533696 16.9703C0.407738 16.893 0.298244 16.7916 0.211468 16.6719C0.124692 16.5523 0.0623316 16.4167 0.0279481 16.273C-0.00643533 16.1292 -0.0121688 15.9801 0.0110752 15.8341C0.220734 14.5226 0.743966 13.281 1.5363 12.215C2.32863 11.149 3.36663 10.29 4.56208 9.71115C4.04008 9.22015 3.62413 8.62749 3.33984 7.96966C3.05556 7.31184 2.90896 6.60277 2.90908 5.88615ZM16.4091 3.63615C17.2806 3.63675 18.1332 3.89034 18.8634 4.36612C19.5936 4.8419 20.17 5.51941 20.5226 6.31642C20.8752 7.11342 20.9888 7.99565 20.8497 8.856C20.7107 9.71635 20.3248 10.5178 19.7391 11.1631C20.6526 11.6157 21.4643 12.2497 22.1245 13.0266C22.7847 13.8034 23.2797 14.7066 23.5791 15.6811C23.6385 15.8702 23.6469 16.0717 23.6033 16.2651C23.5598 16.4585 23.4658 16.6369 23.331 16.7822C23.1962 16.9276 23.0253 17.0346 22.8357 17.0926C22.6461 17.1505 22.4446 17.1573 22.2516 17.1121C22.0586 17.0675 21.8808 16.9727 21.7362 16.8373C21.5916 16.7019 21.4853 16.5308 21.4281 16.3411C21.1588 15.4717 20.6688 14.6869 20.0058 14.0633C19.3428 13.4397 18.5294 12.9986 17.6451 12.7831C17.3994 12.7238 17.1809 12.5836 17.0247 12.3849C16.8685 12.1863 16.7838 11.9408 16.7841 11.6881V11.1601C16.7839 10.9507 16.8423 10.7454 16.9525 10.5673C17.0628 10.3892 17.2205 10.2454 17.4081 10.1521C17.8628 9.92678 18.228 9.55428 18.4443 9.09517C18.6607 8.63605 18.7154 8.11728 18.5997 7.62313C18.484 7.12897 18.2046 6.68845 17.8069 6.37312C17.4092 6.05779 16.9166 5.88617 16.4091 5.88615C16.1107 5.88615 15.8246 5.76762 15.6136 5.55664C15.4026 5.34566 15.2841 5.05951 15.2841 4.76115C15.2841 4.46278 15.4026 4.17663 15.6136 3.96565C15.8246 3.75467 16.1107 3.63615 16.4091 3.63615ZM8.15907 2.88615C7.75957 2.87711 7.36228 2.94798 6.99054 3.0946C6.6188 3.24122 6.28009 3.46063 5.99432 3.73995C5.70854 4.01927 5.48144 4.35287 5.32636 4.72116C5.17129 5.08945 5.09135 5.48502 5.09125 5.88463C5.09115 6.28424 5.17089 6.67984 5.32578 7.04821C5.48068 7.41658 5.7076 7.7503 5.99324 8.02976C6.27888 8.30922 6.61748 8.5288 6.98914 8.6756C7.36081 8.82241 7.75806 8.89348 8.15758 8.88465C8.94142 8.86731 9.68733 8.54381 10.2356 7.98339C10.7839 7.42297 11.0911 6.67016 11.0913 5.88613C11.0914 5.1021 10.7847 4.34914 10.2367 3.78844C9.68866 3.22775 8.94291 2.90387 8.15907 2.88615Z" fill="white"/>
</svg>
