<svg width="24" height="25" viewBox="0 0 24 25" fill="none" xmlns="http://www.w3.org/2000/svg">
<path d="M8 4.18774V16.1877C8 16.7182 8.21071 17.2269 8.58579 17.602C8.96086 17.977 9.46957 18.1877 10 18.1877H18C18.5304 18.1877 19.0391 17.977 19.4142 17.602C19.7893 17.2269 20 16.7182 20 16.1877V7.42974C20 7.1633 19.9467 6.89956 19.8433 6.65399C19.7399 6.40842 19.5885 6.18599 19.398 5.99974L16.083 2.75774C15.7094 2.3924 15.2076 2.18781 14.685 2.18774H10C9.46957 2.18774 8.96086 2.39846 8.58579 2.77353C8.21071 3.1486 8 3.65731 8 4.18774Z" stroke="black" stroke-width="1.5" stroke-linecap="round" stroke-linejoin="round"/>
<path d="M16 18.1877V20.1877C16 20.7182 15.7893 21.2269 15.4142 21.602C15.0391 21.977 14.5304 22.1877 14 22.1877H6C5.46957 22.1877 4.96086 21.977 4.58579 21.602C4.21071 21.2269 4 20.7182 4 20.1877V9.18774C4 8.65731 4.21071 8.1486 4.58579 7.77353C4.96086 7.39846 5.46957 7.18774 6 7.18774H8" stroke="black" stroke-width="1.5" stroke-linecap="round" stroke-linejoin="round"/>
</svg>
