<svg width="25" height="19" viewBox="0 0 25 19" fill="none" xmlns="http://www.w3.org/2000/svg">
<path fill-rule="evenodd" clip-rule="evenodd" d="M6.90918 7.1498C7.50592 7.1498 8.07821 6.91275 8.50017 6.49079C8.92213 6.06883 9.15918 5.49654 9.15918 4.8998C9.15918 4.30306 8.92213 3.73077 8.50017 3.30881C8.07821 2.88685 7.50592 2.6498 6.90918 2.6498C6.31244 2.6498 5.74015 2.88685 5.31819 3.30881C4.89623 3.73077 4.65918 4.30306 4.65918 4.8998C4.65918 5.49654 4.89623 6.06883 5.31819 6.49079C5.74015 6.91275 6.31244 7.1498 6.90918 7.1498ZM11.4092 4.8998C11.4093 6.08709 10.9403 7.22633 10.1042 8.0693C10.9633 8.60976 11.6712 9.35933 12.1618 10.2479C12.6524 11.1364 12.9095 12.1348 12.9092 13.1498V15.3998C12.9092 16.1954 12.5931 16.9585 12.0305 17.5211C11.4679 18.0837 10.7048 18.3998 9.90918 18.3998H3.90918C3.11353 18.3998 2.35047 18.0837 1.78786 17.5211C1.22525 16.9585 0.90918 16.1954 0.90918 15.3998V13.1498C0.90918 11.0093 2.02968 9.1313 3.71418 8.0693C3.19362 7.54445 2.81037 6.89944 2.59831 6.19129C2.38625 5.48313 2.35192 4.73364 2.49834 4.00906C2.64476 3.28448 2.96742 2.60714 3.43782 2.03689C3.90821 1.46664 4.51184 1.02106 5.19536 0.739525C5.87887 0.457992 6.62121 0.34918 7.35677 0.422707C8.09233 0.496234 8.79845 0.749836 9.41271 1.1611C10.027 1.57236 10.5305 2.12861 10.8787 2.78068C11.2269 3.43276 11.4091 4.16058 11.4092 4.8998ZM3.15918 13.1498C3.15918 12.1552 3.55427 11.2014 4.25753 10.4981C4.96079 9.79489 5.91462 9.3998 6.90918 9.3998C7.90374 9.3998 8.85757 9.79489 9.56083 10.4981C10.2641 11.2014 10.6592 12.1552 10.6592 13.1498V15.3998C10.6592 15.5987 10.5802 15.7895 10.4395 15.9301C10.2989 16.0708 10.1081 16.1498 9.90918 16.1498H3.90918C3.71027 16.1498 3.5195 16.0708 3.37885 15.9301C3.2382 15.7895 3.15918 15.5987 3.15918 15.3998V13.1498ZM20.4092 12.3998C20.1108 12.3998 19.8247 12.2813 19.6137 12.0703C19.4027 11.8593 19.2842 11.5732 19.2842 11.2748V9.0248H17.0342C16.7358 9.0248 16.4497 8.90627 16.2387 8.69529C16.0277 8.48432 15.9092 8.19817 15.9092 7.8998C15.9092 7.60143 16.0277 7.31528 16.2387 7.1043C16.4497 6.89333 16.7358 6.7748 17.0342 6.7748H19.2842V4.5248C19.2842 4.22643 19.4027 3.94028 19.6137 3.7293C19.8247 3.51833 20.1108 3.3998 20.4092 3.3998C20.7075 3.3998 20.9937 3.51833 21.2047 3.7293C21.4157 3.94028 21.5342 4.22643 21.5342 4.5248V6.7748H23.7842C24.0825 6.7748 24.3687 6.89333 24.5797 7.1043C24.7907 7.31528 24.9092 7.60143 24.9092 7.8998C24.9092 8.19817 24.7907 8.48432 24.5797 8.69529C24.3687 8.90627 24.0825 9.0248 23.7842 9.0248H21.5342V11.2748C21.5342 11.5732 21.4157 11.8593 21.2047 12.0703C20.9937 12.2813 20.7075 12.3998 20.4092 12.3998Z" fill="white"/>
</svg>
