<svg width="19" height="19" viewBox="0 0 19 19" fill="none" xmlns="http://www.w3.org/2000/svg">
<path d="M16.9092 0.145264H15.9092C14.8046 0.145264 13.9092 1.04069 13.9092 2.14526V16.1453C13.9092 17.2498 14.8046 18.1453 15.9092 18.1453H16.9092C18.0137 18.1453 18.9092 17.2498 18.9092 16.1453V2.14526C18.9092 1.04069 18.0137 0.145264 16.9092 0.145264Z" fill="white"/>
<path d="M10.4092 6.14526H9.40918C8.30461 6.14526 7.40918 7.04069 7.40918 8.14526V16.1453C7.40918 17.2498 8.30461 18.1453 9.40918 18.1453H10.4092C11.5137 18.1453 12.4092 17.2498 12.4092 16.1453V8.14526C12.4092 7.04069 11.5137 6.14526 10.4092 6.14526Z" fill="white"/>
<path d="M3.90918 13.1453H2.90918C1.80461 13.1453 0.90918 14.0407 0.90918 15.1453V16.1453C0.90918 17.2498 1.80461 18.1453 2.90918 18.1453H3.90918C5.01375 18.1453 5.90918 17.2498 5.90918 16.1453V15.1453C5.90918 14.0407 5.01375 13.1453 3.90918 13.1453Z" fill="white"/>
</svg>
