<svg width="24" height="25" viewBox="0 0 24 25" fill="none" xmlns="http://www.w3.org/2000/svg">
<path fill-rule="evenodd" clip-rule="evenodd" d="M9.75 3C9.75 2.80109 9.82902 2.61032 9.96967 2.46967C10.1103 2.32902 10.3011 2.25 10.5 2.25H13.5C13.6989 2.25 13.8897 2.32902 14.0303 2.46967C14.171 2.61032 14.25 2.80109 14.25 3C14.25 3.19891 14.171 3.38968 14.0303 3.53033C13.8897 3.67098 13.6989 3.75 13.5 3.75H12.75V5.282C14.5484 5.43342 16.2552 6.1404 17.634 7.305L18.47 6.47C18.5387 6.39631 18.6215 6.33721 18.7135 6.29622C18.8055 6.25523 18.9048 6.23319 19.0055 6.23141C19.1062 6.22963 19.2062 6.24816 19.2996 6.28588C19.393 6.3236 19.4778 6.37974 19.549 6.45096C19.6203 6.52218 19.6764 6.60701 19.7141 6.7004C19.7518 6.79379 19.7704 6.89382 19.7686 6.99452C19.7668 7.09523 19.7448 7.19454 19.7038 7.28654C19.6628 7.37854 19.6037 7.46134 19.53 7.53L18.695 8.366C19.9569 9.86563 20.6788 11.7455 20.745 13.7043C20.8112 15.6632 20.2178 17.5875 19.06 19.1689C17.9021 20.7503 16.2469 21.8971 14.3596 22.4256C12.4722 22.9542 10.4621 22.8337 8.65137 22.0837C6.84063 21.3336 5.33416 19.9973 4.3734 18.289C3.41265 16.5807 3.05326 14.5993 3.35283 12.6624C3.6524 10.7255 4.59359 8.94522 6.02554 7.60698C7.45749 6.26873 9.29727 5.45 11.25 5.282V3.75H10.5C10.3011 3.75 10.1103 3.67098 9.96967 3.53033C9.82902 3.38968 9.75 3.19891 9.75 3ZM12 6.75C10.0772 6.75 8.23311 7.51384 6.87348 8.87348C5.51384 10.2331 4.75 12.0772 4.75 14C4.75 15.9228 5.51384 17.7669 6.87348 19.1265C8.23311 20.4862 10.0772 21.25 12 21.25C13.9228 21.25 15.7669 20.4862 17.1265 19.1265C18.4862 17.7669 19.25 15.9228 19.25 14C19.25 12.0772 18.4862 10.2331 17.1265 8.87348C15.7669 7.51384 13.9228 6.75 12 6.75Z" fill="black"/>
<path opacity="0.5" d="M12 8.25C10.9907 8.25006 9.99915 8.5158 9.12508 9.02051C8.25101 9.52522 7.52519 10.2511 7.02057 11.1252C6.51595 11.9994 6.25031 12.9909 6.25035 14.0002C6.25039 15.0095 6.51611 16.0011 7.02079 16.8752C7.52548 17.7492 8.25136 18.4751 9.12547 18.9797C9.99958 19.4844 10.9911 19.75 12.0004 19.75C13.0098 19.75 14.0013 19.4843 14.8754 18.9796C15.7495 18.475 16.4753 17.7491 16.98 16.875L12 14V8.25Z" fill="black"/>
</svg>
