<svg width="21" height="19" viewBox="0 0 21 19" fill="none" xmlns="http://www.w3.org/2000/svg">
<path d="M13.6632 7.89087C14.6292 7.89087 15.4132 8.67487 15.4132 9.64087V14.3899C15.4132 15.5836 14.939 16.7285 14.0949 17.5726C13.2508 18.4167 12.1059 18.8909 10.9122 18.8909C9.71844 18.8909 8.57359 18.4167 7.72949 17.5726C6.88539 16.7285 6.41118 15.5836 6.41118 14.3899V9.64087C6.41118 8.67487 7.19418 7.89087 8.16118 7.89087H13.6632ZM13.6632 9.39087H8.16118C8.09487 9.39087 8.03129 9.41721 7.9844 9.46409C7.93752 9.51098 7.91118 9.57456 7.91118 9.64087V14.3899C7.91118 15.1858 8.22736 15.9491 8.79015 16.5119C9.35295 17.0747 10.1163 17.3909 10.9122 17.3909C11.7081 17.3909 12.4714 17.0747 13.0342 16.5119C13.597 15.9491 13.9132 15.1858 13.9132 14.3899V9.64087C13.9132 9.57456 13.8868 9.51098 13.84 9.46409C13.7931 9.41721 13.7295 9.39087 13.6632 9.39087ZM2.65918 7.89087H6.04018C5.68749 8.31702 5.47204 8.83995 5.42218 9.39087H2.65918C2.59288 9.39087 2.52929 9.41721 2.4824 9.46409C2.43552 9.51098 2.40918 9.57456 2.40918 9.64087V12.8899C2.40892 13.2678 2.49436 13.6409 2.65908 13.9811C2.82379 14.3212 3.06348 14.6196 3.36013 14.8538C3.65678 15.088 4.00267 15.2519 4.37178 15.3331C4.74089 15.4144 5.12362 15.4109 5.49118 15.3229C5.57618 15.8269 5.73118 16.3079 5.94418 16.7549C5.61351 16.8449 5.26851 16.8902 4.90918 16.8909C4.38381 16.8909 3.86358 16.7874 3.37821 16.5863C2.89285 16.3852 2.45185 16.0905 2.0804 15.7189C1.70895 15.3474 1.41433 14.9063 1.21337 14.4209C1.01241 13.9355 0.909048 13.4152 0.90918 12.8899V9.64087C0.90918 8.67487 1.69318 7.89087 2.65918 7.89087ZM15.7842 7.89087H19.1592C20.1252 7.89087 20.9092 8.67487 20.9092 9.64087V12.8909C20.9093 13.504 20.7685 14.109 20.4976 14.6591C20.2267 15.2092 19.8329 15.6896 19.3467 16.0632C18.8606 16.4369 18.295 16.6938 17.6938 16.8141C17.0925 16.9343 16.4717 16.9148 15.8792 16.7569C16.0932 16.3089 16.2482 15.8279 16.3342 15.3239C16.5188 15.3679 16.7105 15.3902 16.9092 15.3909C17.5722 15.3909 18.2081 15.1275 18.6769 14.6586C19.1458 14.1898 19.4092 13.5539 19.4092 12.8909V9.64087C19.4092 9.57456 19.3828 9.51098 19.336 9.46409C19.2891 9.41721 19.2255 9.39087 19.1592 9.39087H16.4022C16.3523 8.83995 16.1369 8.31702 15.7842 7.89087ZM10.9092 0.890869C11.7048 0.890869 12.4679 1.20694 13.0305 1.76955C13.5931 2.33216 13.9092 3.09522 13.9092 3.89087C13.9092 4.68652 13.5931 5.44958 13.0305 6.01219C12.4679 6.5748 11.7048 6.89087 10.9092 6.89087C10.1135 6.89087 9.35047 6.5748 8.78786 6.01219C8.22525 5.44958 7.90918 4.68652 7.90918 3.89087C7.90918 3.09522 8.22525 2.33216 8.78786 1.76955C9.35047 1.20694 10.1135 0.890869 10.9092 0.890869ZM17.4092 1.89087C18.0722 1.89087 18.7081 2.15426 19.1769 2.6231C19.6458 3.09194 19.9092 3.72783 19.9092 4.39087C19.9092 5.05391 19.6458 5.6898 19.1769 6.15864C18.7081 6.62748 18.0722 6.89087 17.4092 6.89087C16.7461 6.89087 16.1103 6.62748 15.6414 6.15864C15.1726 5.6898 14.9092 5.05391 14.9092 4.39087C14.9092 3.72783 15.1726 3.09194 15.6414 2.6231C16.1103 2.15426 16.7461 1.89087 17.4092 1.89087ZM4.40918 1.89087C5.07222 1.89087 5.70811 2.15426 6.17695 2.6231C6.64579 3.09194 6.90918 3.72783 6.90918 4.39087C6.90918 5.05391 6.64579 5.6898 6.17695 6.15864C5.70811 6.62748 5.07222 6.89087 4.40918 6.89087C3.74614 6.89087 3.11025 6.62748 2.64141 6.15864C2.17257 5.6898 1.90918 5.05391 1.90918 4.39087C1.90918 3.72783 2.17257 3.09194 2.64141 2.6231C3.11025 2.15426 3.74614 1.89087 4.40918 1.89087ZM10.9092 2.39087C10.5114 2.39087 10.1298 2.5489 9.84852 2.83021C9.56721 3.11151 9.40918 3.49304 9.40918 3.89087C9.40918 4.28869 9.56721 4.67022 9.84852 4.95153C10.1298 5.23283 10.5114 5.39087 10.9092 5.39087C11.307 5.39087 11.6885 5.23283 11.9698 4.95153C12.2511 4.67022 12.4092 4.28869 12.4092 3.89087C12.4092 3.49304 12.2511 3.11151 11.9698 2.83021C11.6885 2.5489 11.307 2.39087 10.9092 2.39087ZM17.4092 3.39087C17.144 3.39087 16.8896 3.49623 16.7021 3.68376C16.5145 3.8713 16.4092 4.12565 16.4092 4.39087C16.4092 4.65609 16.5145 4.91044 16.7021 5.09798C16.8896 5.28551 17.144 5.39087 17.4092 5.39087C17.6744 5.39087 17.9287 5.28551 18.1163 5.09798C18.3038 4.91044 18.4092 4.65609 18.4092 4.39087C18.4092 4.12565 18.3038 3.8713 18.1163 3.68376C17.9287 3.49623 17.6744 3.39087 17.4092 3.39087ZM4.40918 3.39087C4.14396 3.39087 3.88961 3.49623 3.70207 3.68376C3.51454 3.8713 3.40918 4.12565 3.40918 4.39087C3.40918 4.65609 3.51454 4.91044 3.70207 5.09798C3.88961 5.28551 4.14396 5.39087 4.40918 5.39087C4.6744 5.39087 4.92875 5.28551 5.11629 5.09798C5.30382 4.91044 5.40918 4.65609 5.40918 4.39087C5.40918 4.12565 5.30382 3.8713 5.11629 3.68376C4.92875 3.49623 4.6744 3.39087 4.40918 3.39087Z" fill="white"/>
</svg>
