<svg width="20" height="13" viewBox="0 0 20 13" fill="none" xmlns="http://www.w3.org/2000/svg">
<path d="M13.75 1.5C15.0761 1.5 16.3479 2.02678 17.2855 2.96447C18.2232 3.90215 18.75 5.17392 18.75 6.5C18.75 7.82608 18.2232 9.09785 17.2855 10.0355C16.3479 10.9732 15.0761 11.5 13.75 11.5H10C10.7762 10.9178 11.4062 10.1629 11.8402 9.29508C12.2741 8.42724 12.5 7.47028 12.5 6.5C12.5 5.52972 12.2741 4.57276 11.8402 3.70492C11.4062 2.83707 10.7762 2.08217 10 1.5H13.75ZM6.25 11.5C4.92392 11.5 3.65215 10.9732 2.71447 10.0355C1.77678 9.09785 1.25 7.82608 1.25 6.5C1.25 5.17392 1.77678 3.90215 2.71447 2.96447C3.65215 2.02678 4.92392 1.5 6.25 1.5C7.57608 1.5 8.84785 2.02678 9.78553 2.96447C10.7232 3.90215 11.25 5.17392 11.25 6.5C11.25 7.82608 10.7232 9.09785 9.78553 10.0355C8.84785 10.9732 7.57608 11.5 6.25 11.5ZM0 6.5C0 8.1576 0.65848 9.74731 1.83058 10.9194C3.00269 12.0915 4.5924 12.75 6.25 12.75H13.75C15.4076 12.75 16.9973 12.0915 18.1694 10.9194C19.3415 9.74731 20 8.1576 20 6.5C20 4.8424 19.3415 3.25269 18.1694 2.08058C16.9973 0.90848 15.4076 0.25 13.75 0.25H6.25C4.5924 0.25 3.00269 0.90848 1.83058 2.08058C0.65848 3.25269 0 4.8424 0 6.5Z" fill="black"/>
</svg>
