<svg width="20" height="13" viewBox="0 0 20 13" fill="none" xmlns="http://www.w3.org/2000/svg">
<path d="M6.25 11.25C4.92392 11.25 3.65215 10.7232 2.71447 9.78553C1.77678 8.84785 1.25 7.57608 1.25 6.25C1.25 4.92392 1.77678 3.65215 2.71447 2.71447C3.65215 1.77678 4.92392 1.25 6.25 1.25H10C9.22377 1.83217 8.59375 2.58707 8.15983 3.45492C7.72591 4.32276 7.5 5.27972 7.5 6.25C7.5 7.22028 7.72591 8.17724 8.15983 9.04508C8.59375 9.91293 9.22377 10.6678 10 11.25H6.25ZM13.75 1.25C15.0761 1.25 16.3479 1.77678 17.2855 2.71447C18.2232 3.65215 18.75 4.92392 18.75 6.25C18.75 7.57608 18.2232 8.84785 17.2855 9.78553C16.3479 10.7232 15.0761 11.25 13.75 11.25C12.4239 11.25 11.1521 10.7232 10.2145 9.78553C9.27678 8.84785 8.75 7.57608 8.75 6.25C8.75 4.92392 9.27678 3.65215 10.2145 2.71447C11.1521 1.77678 12.4239 1.25 13.75 1.25ZM20 6.25C20 4.5924 19.3415 3.00269 18.1694 1.83058C16.9973 0.65848 15.4076 0 13.75 0L6.25 0C4.5924 0 3.00269 0.65848 1.83058 1.83058C0.65848 3.00269 0 4.5924 0 6.25C0 7.9076 0.65848 9.49731 1.83058 10.6694C3.00269 11.8415 4.5924 12.5 6.25 12.5L13.75 12.5C15.4076 12.5 16.9973 11.8415 18.1694 10.6694C19.3415 9.49731 20 7.9076 20 6.25Z" fill="black"/>
</svg>
