<svg width="46" height="33" viewBox="0 0 46 33" fill="none" xmlns="http://www.w3.org/2000/svg">
<path d="M23.0038 0.344971L0.199707 8.89673L23.0038 20.2988L33.8651 14.8681L23.676 11.7529C23.4662 11.8535 23.2365 11.906 23.0038 11.9065C22.5894 11.9065 22.192 11.7419 21.899 11.4488C21.6059 11.1558 21.4413 10.7584 21.4413 10.344C21.4413 9.92959 21.6059 9.53217 21.899 9.23914C22.192 8.94611 22.5894 8.78149 23.0038 8.78149L22.7454 9.62153L24.5557 10.1785L24.5564 10.1839L27.2277 11.0008L42.4374 15.6804V16.8666C42.227 17.0097 42.0548 17.202 41.9357 17.4268C41.8165 17.6516 41.7541 17.9022 41.7538 18.1566C41.7541 18.4169 41.8194 18.6729 41.9438 18.9016C42.0681 19.1302 42.2477 19.3241 42.466 19.4658C41.7548 22.1538 41.7538 28.2525 41.7538 30.6565C43.3163 31.6716 43.3163 31.7087 44.8788 30.6565C44.8788 28.2528 44.878 22.1552 44.1669 19.4666C44.3853 19.3249 44.5649 19.1308 44.6892 18.902C44.8135 18.6732 44.8787 18.4169 44.8788 18.1565C44.8788 17.9018 44.8165 17.6509 44.6973 17.4258C44.5782 17.2007 44.4058 17.0081 44.1952 16.8648V14.3824L38.4019 12.5999L45.8079 8.89673L23.0038 0.344971ZM9.68574 15.9104L8.4042 23.5999C10.9604 23.9341 14.0181 25.4199 16.829 27.1767C18.4276 28.1759 19.925 29.2727 21.1411 30.3369C21.8845 30.9873 22.5061 31.6113 23.0038 32.2252C23.5016 31.6112 24.1231 30.9873 24.8665 30.3369C26.0826 29.2727 27.5799 28.1759 29.1786 27.1767C31.9896 25.4199 35.0473 23.9341 37.6034 23.5999L36.3217 15.9104H35.7113L23.0038 22.2642L10.2961 15.9104H9.68574Z" fill="#0052CC"/>
</svg>
