<svg width="43" height="33" viewBox="0 0 43 33" fill="none" xmlns="http://www.w3.org/2000/svg">
<path d="M29.8947 28.0107V32.1773H0.728027V28.0107C0.728027 28.0107 0.728027 19.6773 15.3114 19.6773C29.8947 19.6773 29.8947 28.0107 29.8947 28.0107ZM22.603 8.21899C22.603 6.77683 22.1754 5.36707 21.3742 4.16796C20.5729 2.96885 19.4341 2.03426 18.1018 1.48237C16.7694 0.930479 15.3033 0.78608 13.8888 1.06743C12.4744 1.34878 11.1751 2.04325 10.1554 3.063C9.13562 4.08276 8.44115 5.38201 8.1598 6.79646C7.87845 8.2109 8.02285 9.67701 8.57474 11.0094C9.12663 12.3418 10.0612 13.4806 11.2603 14.2818C12.4594 15.083 13.8692 15.5107 15.3114 15.5107C17.2452 15.5107 19.0999 14.7424 20.4673 13.375C21.8348 12.0075 22.603 10.1529 22.603 8.21899ZM29.7697 19.6773C31.0504 20.6685 32.0984 21.9282 32.8399 23.368C33.5813 24.8077 33.9983 26.3924 34.0614 28.0107V32.1773H42.3947V28.0107C42.3947 28.0107 42.3947 20.4482 29.7697 19.6773ZM27.8114 0.927323C26.3776 0.920654 24.9755 1.34926 23.7905 2.15649C25.056 3.92469 25.7365 6.04459 25.7365 8.21899C25.7365 10.3934 25.056 12.5133 23.7905 14.2815C24.9755 15.0887 26.3776 15.5173 27.8114 15.5107C29.7452 15.5107 31.5999 14.7424 32.9674 13.375C34.3348 12.0075 35.103 10.1529 35.103 8.21899C35.103 6.28512 34.3348 4.43046 32.9674 3.063C31.5999 1.69555 29.7452 0.927323 27.8114 0.927323Z" fill="#F79A1F"/>
</svg>
